External Loads File
version=1
nRows=47
nColumns=13
Range=5.000000e-03-10 seconds
endheader
time 	forceRightX 	forceRightY 	forceRightZ 	pointRightX 	pointRightY 	pointRightZ 	forceLeftX 	forceLeftY 	forceLeftZ 	pointLeftX 	pointLeftY 	pointLeftZ 		
0.005000 47.984985 115.600608 -0.000000 0.132952 0.276208 -0.112275 -36.623059 90.466217 -0.000000 0.442841 0.360414 -0.360592
0.010000 48.406287 113.992635 -0.000000 0.132443 0.279130 -0.112377 -36.448186 91.008359 -0.000000 0.443543 0.357419 -0.360578
0.015000 48.806064 112.464324 -0.000000 0.132062 0.282067 -0.112520 -36.530118 91.537933 -0.000000 0.444141 0.354515 -0.360538
0.020000 48.729218 111.271537 -0.000000 0.131509 0.284963 -0.112956 -37.340032 91.902214 -0.000000 0.444695 0.353232 -0.360557
0.025000 49.176616 110.002421 -0.000000 0.131088 0.288160 -0.112840 -38.038540 92.466515 -0.000000 0.444304 0.350726 -0.361154
0.030000 50.306625 108.571770 -0.000000 0.130874 0.291070 -0.112921 -38.374801 93.351001 -0.000000 0.446321 0.346486 -0.358690
0.035000 51.276751 107.337970 -0.000000 0.130699 0.294206 -0.112933 -38.905507 94.318601 -0.000000 0.446638 0.342623 -0.358744
0.040000 51.797030 106.418621 -0.000000 0.130600 0.297117 -0.112939 -39.701699 95.301086 -0.000000 0.446873 0.339732 -0.358839
0.045000 52.228675 105.609011 -0.000000 0.130562 0.299924 -0.112983 -40.243897 96.444901 -0.000000 0.447067 0.336742 -0.359044
0.050000 52.600136 104.861822 -0.000000 0.130567 0.302854 -0.113019 -40.334455 97.743243 -0.000000 0.447257 0.333745 -0.358976
0.055000 52.862815 104.174746 -0.000000 0.130629 0.305779 -0.113048 -39.919716 99.131329 -0.000000 0.447407 0.330760 -0.358980
0.060000 53.058059 103.506379 -0.000000 0.130761 0.308729 -0.113097 -38.965929 100.570081 -0.000000 0.447519 0.327687 -0.358973
0.065000 53.142643 102.870428 -0.000000 0.130949 0.311702 -0.113152 -37.643600 101.989324 -0.000000 0.447574 0.324699 -0.358806
0.070000 53.211326 102.226053 -0.000000 0.131189 0.314675 -0.113169 -36.091287 103.372125 -0.000000 0.447653 0.321595 -0.358800
0.075000 53.265758 101.589025 -0.000000 0.131448 0.317672 -0.113166 -34.591638 104.672336 -0.000000 0.447645 0.318539 -0.358803
0.080000 53.356794 100.947659 -0.000000 0.131765 0.320641 -0.113216 -33.384865 105.877432 -0.000000 0.447468 0.315451 -0.358799
0.085000 53.597313 100.246172 -0.000000 0.132174 0.323780 -0.113258 -32.604531 107.018689 -0.000000 0.447311 0.312267 -0.358853
0.090000 53.916246 99.510663 -0.000000 0.132571 0.326886 -0.113326 -32.486354 108.089649 -0.000000 0.447283 0.309068 -0.358717
0.095000 54.305811 98.724892 -0.000000 0.133136 0.329926 -0.113322 -33.081344 109.115305 -0.000000 0.447111 0.305885 -0.358724
0.100000 54.846047 97.825809 -0.000000 0.133661 0.333108 -0.113344 -34.230426 110.148923 -0.000000 0.446883 0.302627 -0.358700
0.105000 55.435924 96.858928 -0.000000 0.134224 0.336263 -0.113423 -35.891950 111.180148 -0.000000 0.446628 0.299403 -0.358709
0.110000 56.089124 95.815985 -0.000000 0.134851 0.339395 -0.113467 -37.843311 112.234207 -0.000000 0.446352 0.296136 -0.358666
0.115000 56.797339 94.703102 -0.000000 0.135624 0.342587 -0.113485 -39.856893 113.324959 -0.000000 0.446029 0.292921 -0.358687
0.120000 57.509413 93.542496 -0.000000 0.136390 0.345756 -0.113570 -41.753212 114.455241 -0.000000 0.445638 0.289716 -0.358936
0.125000 58.164800 92.350243 -0.000000 0.137199 0.348877 -0.113620 -43.380025 115.641780 -0.000000 0.445181 0.286456 -0.358960
0.130000 58.652877 91.172467 -0.000000 0.138070 0.351984 -0.113613 -44.669217 116.878168 -0.000000 0.444629 0.283263 -0.358668
0.135000 58.939391 90.018439 -0.000000 0.138944 0.355139 -0.113681 -45.491567 118.161349 -0.000000 0.444029 0.280073 -0.358624
0.140000 58.989916 88.914813 -0.000000 0.139948 0.358251 -0.113691 -45.782041 119.449625 -0.000000 0.443374 0.276851 -0.358606
0.145000 58.775715 87.903326 -0.000000 0.140958 0.361291 -0.113758 -45.570369 120.677053 -0.000000 0.442653 0.273702 -0.358565
0.150000 58.425072 86.935397 -0.000000 0.142052 0.364425 -0.113782 -44.795164 121.839584 -0.000000 0.441944 0.270535 -0.358540
0.155000 58.098564 85.942971 -0.000000 0.143111 0.367993 -0.113858 -43.449362 122.945503 -0.000000 0.441084 0.267436 -0.358485
0.160000 57.701869 85.019579 -0.000000 0.144295 0.371119 -0.113888 -41.929160 123.899207 -0.000000 0.440240 0.264254 -0.358452
0.165000 57.335641 84.115679 -0.000000 0.145399 0.374119 -0.113959 -40.329931 124.740386 -0.000000 0.439350 0.261149 -0.358441
0.170000 57.117458 83.161331 -0.000000 0.146676 0.377093 -0.113982 -38.659913 125.535704 -0.000000 0.438324 0.258064 -0.358408
0.175000 57.059000 82.148804 -0.000000 0.148002 0.380117 -0.114066 -37.009248 126.315484 -0.000000 0.437329 0.254984 -0.358394
0.180000 57.118512 81.100919 -0.000000 0.149486 0.383060 -0.114069 -35.452585 127.092458 -0.000000 0.436248 0.251949 -0.358380
0.185000 57.250448 80.046503 -0.000000 0.150893 0.386056 -0.114074 -33.975363 127.866950 -0.000000 0.435115 0.248971 -0.358345
0.190000 57.407170 79.026002 -0.000000 0.152319 0.388988 -0.114202 -32.527000 128.621600 -0.000000 0.433962 0.245940 -0.358317
0.195000 57.547434 78.082608 -0.000000 0.153785 0.391921 -0.114241 -31.078211 129.329742 -0.000000 0.432754 0.242983 -0.358280
0.200000 57.643126 77.241672 -0.000000 0.155348 0.394732 -0.114241 -29.621406 129.963864 -0.000000 0.431502 0.240068 -0.358258
0.205000 57.706237 76.476961 -0.000000 0.156875 0.397572 -0.114316 -28.092597 130.515750 -0.000000 0.430206 0.237140 -0.358228
0.210000 57.699936 75.786479 -0.000000 0.158422 0.400456 -0.114386 -26.531152 130.977246 -0.000000 0.428894 0.234287 -0.358179
0.215000 57.601869 75.170750 -0.000000 0.160069 0.403212 -0.114404 -25.012742 131.373286 -0.000000 0.427516 0.231445 -0.358169
0.220000 57.425084 74.632449 -0.000000 0.161740 0.406012 -0.114474 -23.609510 131.757303 -0.000000 0.426122 0.228684 -0.358123
0.225000 57.190627 74.189780 -0.000000 0.163405 0.408698 -0.114512 -22.395730 132.177508 -0.000000 0.424661 0.225924 -0.358071
0.230000 56.963589 73.825010 -0.000000 0.165190 0.411316 -0.113948 -21.339246 132.672210 -0.000000 0.423177 0.223197 -0.358027
0.235000 56.772411 73.532671 -0.000000 0.166910 0.413885 -0.114155 -20.438839 133.252765 -0.000000 0.421650 0.220561 -0.358001
